# xmcd
# 
# Track frame offsets:
#     150
#     16807
#     40915
#     65847
#     84572
#     112492
#     133595
#     152157
#     166662
#     190912
#     208377
#     226852
#     243867
#     268540
#     284865
# 
# Disc length: 4041
# 
# Revision: 2
# Processed by: cddbd v1.5.2PL0 Copyright (c) Steve Scherf et al.
# Submitted via: BonkEnc v1.0.15
# 
DISCID=dc0fc70f
DTITLE=Various Artist - YOUR SONGII Disc 2
DYEAR=2001
DGENRE=Rock
TTITLE0=Peter Frampton - Baby I love your way
TTITLE1=Brenda Russell - Piano in the dark
TTITLE2=Atlantic Starr - Secret Lovers
TTITLE3=Cathy Dennis - All night long(Touch me)
TTITLE4=Dennis De Young - Desert Moon
TTITLE5=DeBarge - I like it
TTITLE6=Steeve Winwood - Valerie
TTITLE7=Styx - Boat on the river
TTITLE8=Jevetta Steele - Calling you
TTITLE9=The Temptations - Just my imagination (Running away with me)
TTITLE10=Donna Summer - On the radio
TTITLE11=Andy Gibb - I just want to be your everything\n
TTITLE12=Vanessa Williams - Dreamin'
TTITLE13=Gino Vannelli - I just wanna stop
TTITLE14=Aswad - Best of my love
EXTD=
EXTT0=
EXTT1=
EXTT2=
EXTT3=
EXTT4=
EXTT5=
EXTT6=
EXTT7=
EXTT8=
EXTT9=
EXTT10=
EXTT11=
EXTT12=
EXTT13=
EXTT14=
PLAYORDER=
